<svg xmlns="http://www.w3.org/2000/svg" viewBox="0 0 100 100">
  <path d="M 50 10 C 70 20, 80 30, 80 50 C 80 70, 70 80, 50 80 C 30 80, 20 70, 20 50 C 20 30, 30 20, 50 10 Z" fill="#6B8E23" stroke="#38761D" stroke-width="3"/>
  <path d="M 50 80 L 50 95" stroke="#38761D" stroke-width="4" stroke-linecap="round"/>
  <path d="M 40 50 Q 35 60, 40 70 Q 45 80, 50 80 Q 55 80, 60 70 Q 65 60, 60 50" fill="#4F7A2C" stroke="#38761D" stroke-width="2"/>
  <path d="M 50 40 L 60 40 L 60 55 L 50 55 Z" fill="#4F7A2C" stroke="#38761D" stroke-width="2"/>
  <path d="M 50 40 L 40 30 L 40 50 Z" fill="#4F7A2C" stroke="#38761D" stroke-width="2"/>
</svg>